# xmcd CD database file generated by Grip 3.2.0
# 
# Track frame offsets:
#       150
#       21158
#       33390
#       55554
#       73814
#       90674
#       107802
#       127194
#       142370
#       163130
#       173054
#       190374
# 
# Disc length: 2713 seconds
# 
# Revision: 1
# Processed by: cddbd v1.5.2PL0 Copyright (c) Steve Scherf et al.
# Submitted via: Grip 3.2.0
# 
DISCID=b10a970c
DTITLE=蟻プロジェクト - 幻想庭園
DYEAR=1988
DGENRE=Other
TTITLE0=青蛾月
TTITLE1=マリーゴールド・ガーデン
TTITLE2=鏡面界 im Juni
TTITLE3=姉ｊ・ノワールの祭戯
TTITLE4=紅い睡蓮の午後
TTITLE5=桜の花は狂い咲き
TTITLE6=少女忌恋歌
TTITLE7=パラソルのある風景
TTITLE8=硝子天井のうちゅう
TTITLE9=幻想庭園
TTITLE10=Pouppr Frou Frou
TTITLE11=フラワー・チャイルド
EXTD=
EXTT0=
EXTT1=
EXTT2=
EXTT3=
EXTT4=
EXTT5=
EXTT6=
EXTT7=
EXTT8=
EXTT9=
EXTT10=
EXTT11=
PLAYORDER=
